<svg version="1.0" xmlns="http://www.w3.org/2000/svg"
 width="233.000000pt" height="216.000000pt" viewBox="0 0 233.000000 216.000000"
 preserveAspectRatio="xMidYMid meet">

<g transform="translate(0.000000,216.000000) scale(0.100000,-0.100000)"
fill="#e05762" stroke="none">
<path d="M1667 1945 c-119 -108 -217 -200 -217 -206 0 -54 61 -65 105 -19 15
16 32 27 37 24 4 -3 8 -102 8 -220 l0 -214 100 0 100 0 0 155 0 155 85 0 84 0
3 -152 3 -153 98 -3 97 -3 0 216 c0 118 3 215 6 215 3 0 20 -11 38 -25 37 -28
68 -32 86 -10 22 27 2 59 -90 140 l-90 80 0 98 0 97 -55 0 -55 0 0 -47 0 -47
-42 40 c-91 85 -56 99 -301 -121z"/>
<path d="M20 1665 l0 -215 270 0 c217 0 278 -3 306 -15 21 -9 109 -87 213
-188 239 -236 175 -217 722 -217 l431 0 29 29 c41 41 41 101 0 142 l-29 29
-249 0 -249 0 -22 -29 c-44 -60 -146 -87 -215 -57 -18 8 -113 95 -212 195
-154 155 -178 184 -169 199 25 38 44 25 222 -151 109 -108 188 -178 205 -182
68 -18 127 30 127 103 l0 46 -227 228 c-192 193 -238 234 -293 261 l-65 32
-397 3 -398 3 0 -216z"/>
<path d="M441 1098 c0 -7 10 -42 22 -78 l22 -65 89 0 89 0 29 69 c15 38 28 73
28 78 0 4 -63 8 -140 8 -106 0 -140 -3 -139 -12z"/>
<path d="M386 871 c-93 -74 -132 -163 -124 -286 8 -119 65 -202 181 -262 44
-23 64 -28 132 -28 71 0 88 4 147 33 190 93 237 337 97 496 -64 72 -77 76
-247 76 l-149 0 -37 -29z m214 -111 c0 -14 7 -20 23 -20 35 0 50 -15 42 -39
-6 -19 -11 -21 -49 -16 -32 5 -45 3 -55 -9 -13 -16 -10 -19 78 -68 56 -31 53
-111 -6 -138 -22 -10 -33 -22 -33 -37 0 -18 -6 -23 -25 -23 -18 0 -25 5 -25
20 0 14 -10 22 -32 28 -26 6 -33 14 -33 33 0 23 3 24 60 24 48 0 60 3 63 17 2
12 -13 25 -55 46 -40 19 -61 36 -67 55 -13 35 5 73 44 95 16 9 30 25 30 35 0
10 8 17 20 17 13 0 20 -7 20 -20z"/>
<path d="M1509 866 c-82 -22 -131 -62 -357 -288 -185 -186 -223 -230 -228
-258 -11 -70 62 -133 133 -116 18 5 92 71 203 182 97 96 183 174 193 174 9 0
21 -10 28 -21 10 -20 -4 -37 -167 -200 -98 -99 -193 -186 -210 -194 -70 -33
-158 -12 -214 51 l-29 34 -246 0 -245 0 -31 -28 c-59 -53 -39 -139 40 -172 20
-8 148 -10 437 -8 521 4 462 -15 705 225 104 101 192 179 213 188 28 12 89 15
306 15 l270 0 -2 213 -3 212 -375 2 c-272 1 -388 -2 -421 -11z"/>
</g>
</svg>
