<svg version="1.0" xmlns="http://www.w3.org/2000/svg"
 width="200.000000pt" height="200.000000pt" viewBox="0 0 200.000000 200.000000"
 preserveAspectRatio="xMidYMid meet">

<g transform="translate(0.000000,200.000000) scale(0.100000,-0.100000)"
fill="#e05762" stroke="none">
<path d="M1228 1741 c-155 -62 -239 -180 -241 -336 0 -40 7 -91 16 -120 35
-105 131 -196 243 -232 45 -14 54 -21 54 -40 l0 -23 -498 0 -498 0 -150 -373
-151 -372 498 -3 c275 -1 723 -1 998 0 l498 3 -151 373 -150 372 -153 0 -153
0 0 24 c0 19 7 26 33 31 60 13 137 58 183 107 168 180 119 459 -101 571 -78
40 -203 48 -277 18z m247 -125 c51 -30 99 -96 116 -161 31 -114 -53 -261 -169
-294 l-32 -10 0 45 0 44 -45 0 -45 0 0 -44 0 -44 -36 11 c-50 15 -128 88 -149
139 -52 127 11 278 137 331 64 26 162 18 223 -17z m-175 -806 l0 -100 45 0 45
0 0 100 0 101 127 -3 127 -3 118 -289 c65 -159 118 -291 118 -293 0 -1 -396
-3 -881 -3 -701 0 -880 3 -876 13 20 51 230 564 234 570 2 4 215 7 474 7 l469
0 0 -100z"/>
<path d="M1298 1564 c-73 -47 -61 -108 29 -151 64 -31 81 -63 44 -83 -16 -8
-29 -6 -60 9 -33 18 -41 18 -51 6 -16 -20 -5 -34 46 -56 49 -21 81 -15 122 23
47 45 20 106 -65 143 -46 21 -54 28 -51 47 2 18 10 24 35 26 18 2 42 -2 54 -8
17 -10 23 -9 30 1 12 20 6 32 -22 45 -49 23 -73 23 -111 -2z"/>
</g>
</svg>
