<svg version="1.0" xmlns="http://www.w3.org/2000/svg"
 width="512.000000pt" height="512.000000pt" viewBox="0 0 512.000000 512.000000"
 preserveAspectRatio="xMidYMid meet">

<g transform="translate(0.000000,512.000000) scale(0.100000,-0.100000)"
fill="#e05762" stroke="none">
<path d="M1748 4484 c-511 -340 -690 -464 -698 -484 -21 -50 31 -110 82 -94
10 3 313 200 671 438 359 238 658 436 665 440 19 11 2315 -1516 2330 -1550 17
-35 15 -76 -4 -103 -21 -30 -74 -52 -105 -44 -13 3 -504 326 -1092 716 -904
601 -1074 710 -1110 714 -42 5 -53 -2 -1107 -702 -586 -390 -1079 -714 -1095
-721 -41 -17 -81 -7 -110 28 -28 34 -33 91 -10 122 8 10 153 111 322 225 332
222 344 233 312 289 -11 21 -24 28 -53 30 -35 3 -62 -12 -330 -190 -160 -106
-308 -208 -329 -227 -170 -151 -64 -431 163 -431 68 0 108 18 243 109 59 39
109 71 112 71 3 0 5 -562 5 -1250 l0 -1250 -148 0 c-178 0 -231 -12 -284 -67
-86 -89 -91 -209 -13 -300 68 -80 -144 -74 2332 -71 l2211 3 44 30 c55 38 98
119 98 184 -1 93 -75 187 -165 210 -24 6 -109 11 -189 11 l-146 0 0 189 c0
175 -1 190 -21 215 -25 31 -66 34 -100 7 -24 -19 -24 -23 -27 -215 l-3 -196
-345 0 -344 0 0 270 0 270 730 0 c591 0 737 3 763 14 42 17 93 76 107 123 8
27 10 246 8 723 l-3 685 -24 38 c-13 21 -42 50 -64 65 l-41 27 -736 3 -737 2
-5 113 c-6 138 -29 199 -96 257 -46 41 -120 70 -177 70 -57 0 -131 -29 -177
-70 -67 -58 -90 -119 -96 -257 l-5 -113 -737 -2 -736 -3 -41 -27 c-22 -15 -51
-44 -64 -65 l-24 -38 -3 -685 c-2 -477 0 -696 8 -723 12 -39 59 -100 94 -120
13 -7 82 -14 176 -17 l155 -5 3 -268 2 -267 -515 0 -515 0 0 1304 0 1304 860
570 860 571 860 -571 860 -572 0 -107 c0 -60 5 -119 11 -133 16 -34 58 -51 91
-35 34 15 48 48 48 114 0 30 2 55 5 55 2 0 58 -36 124 -79 139 -92 172 -105
251 -99 154 11 259 163 216 312 -9 31 -31 72 -49 93 -19 21 -513 357 -1197
811 -1102 733 -1168 775 -1215 779 l-50 4 -687 -457z m1556 -1375 c45 -35 56
-69 56 -174 l0 -95 -125 0 -125 0 0 95 c0 105 11 139 56 174 18 14 41 21 69
21 28 0 51 -7 69 -21z m1654 -431 c9 -9 12 -174 12 -679 0 -594 -2 -669 -16
-683 -14 -14 -184 -16 -1719 -16 -1535 0 -1705 2 -1719 16 -14 14 -16 89 -16
683 0 505 3 670 12 679 17 17 3429 17 3446 0z m-1998 -1788 l0 -270 -515 0
-515 0 0 263 c0 145 3 267 7 270 3 4 235 7 515 7 l508 0 0 -270z m398 -152 l2
-418 -125 0 -125 0 0 413 c0 228 3 417 7 421 4 3 59 5 122 4 l116 -3 3 -417z
m-398 -343 l0 -75 -1329 2 c-1291 3 -1330 4 -1350 22 -27 25 -28 79 -1 106 20
20 33 20 1350 20 l1330 0 0 -75z m1718 55 c29 -27 29 -80 1 -106 -20 -18 -47
-19 -595 -22 l-574 -2 0 75 0 75 573 0 c563 0 574 0 595 -20z"/>
<path d="M2071 2371 c-21 -21 -21 -27 -21 -371 0 -337 1 -351 20 -370 24 -24
67 -26 98 -4 21 14 22 22 22 160 l0 144 44 0 44 0 84 -157 c80 -152 84 -158
117 -161 38 -4 81 28 81 61 0 17 -69 155 -122 243 l-18 32 42 25 c110 64 131
254 39 346 -50 50 -93 61 -262 68 -140 6 -147 5 -168 -16z m312 -131 c30 -24
42 -73 33 -125 -11 -54 -52 -75 -148 -75 l-78 0 0 110 0 110 84 0 c69 0 88 -4
109 -20z"/>
<path d="M2710 2377 l-25 -13 -3 -364 c-2 -334 -1 -366 15 -377 12 -10 74 -13
224 -13 175 0 210 2 223 16 18 18 21 56 6 85 -10 18 -23 19 -170 19 l-160 0 0
105 0 105 78 0 c90 0 122 15 122 59 0 44 -16 51 -112 51 l-88 0 0 105 0 105
150 0 c137 0 152 2 170 20 11 11 20 31 20 45 0 14 -9 34 -20 45 -19 19 -33 20
-212 20 -136 0 -200 -4 -218 -13z"/>
<path d="M3306 2379 c-16 -5 -33 -14 -37 -21 -5 -7 -9 -169 -9 -360 0 -335 1
-349 20 -368 25 -25 71 -26 99 -2 20 16 21 27 23 230 l3 214 119 -222 c122
-229 131 -240 192 -240 13 0 33 9 44 20 19 19 20 33 20 368 0 267 -3 352 -13
366 -15 21 -89 25 -112 6 -12 -10 -15 -52 -17 -229 l-3 -216 -104 202 c-58
111 -112 211 -120 222 -20 27 -68 40 -105 30z"/>
<path d="M3910 2383 c-23 -9 -30 -24 -30 -65 0 -49 18 -58 114 -58 l76 0 0
-305 c0 -292 1 -306 20 -325 22 -22 70 -26 101 -10 18 10 19 25 19 325 l0 315
83 0 c69 0 87 3 100 18 23 25 21 68 -3 92 -19 19 -33 20 -242 19 -123 0 -230
-3 -238 -6z"/>
<path d="M2400 4039 c-257 -44 -431 -311 -365 -562 41 -157 150 -275 302 -328
72 -24 209 -26 277 -3 173 59 292 199 319 375 34 220 -108 442 -322 504 -67
20 -148 25 -211 14z m10 -264 l0 -115 -120 0 -120 0 15 38 c34 80 84 133 165
174 60 30 60 29 60 -97z m208 91 c76 -39 142 -114 157 -178 l7 -28 -116 0
-116 0 0 115 c0 72 4 115 10 115 6 0 32 -11 58 -24z m-208 -472 c0 -115 0
-115 -22 -109 -91 27 -208 148 -208 215 0 6 43 10 115 10 l115 0 0 -116z m370
107 c0 -47 -78 -147 -144 -186 -88 -50 -86 -52 -86 79 l0 116 115 0 c63 0 115
-4 115 -9z"/>
</g>
</svg>
