<?xml version="1.0" standalone="no"?>
<!DOCTYPE svg PUBLIC "-//W3C//DTD SVG 20010904//EN"
 "http://www.w3.org/TR/2001/REC-SVG-20010904/DTD/svg10.dtd">
<svg version="1.0" xmlns="http://www.w3.org/2000/svg"
 width="225.000000pt" height="225.000000pt" viewBox="0 0 225.000000 225.000000"
 preserveAspectRatio="xMidYMid meet">

<g transform="translate(0.000000,225.000000) scale(0.100000,-0.100000)"
fill="#000000" stroke="none">
<path d="M2095 2046 c-44 -15 -1948 -744 -2007 -769 -73 -31 -99 -85 -59 -121
11 -10 141 -56 291 -102 l271 -85 32 19 c18 10 284 176 592 369 308 192 570
356 583 362 27 14 52 8 52 -12 0 -7 -206 -198 -457 -424 -252 -226 -469 -421
-483 -434 -25 -24 -26 -29 -43 -278 -9 -140 -15 -256 -13 -259 17 -16 75 25
199 143 78 75 148 133 154 130 7 -2 124 -86 260 -187 143 -105 266 -188 291
-196 61 -21 103 -1 126 60 9 24 55 223 101 443 47 220 124 579 170 798 47 219
85 420 85 447 0 86 -59 125 -145 96z"/>
</g>
</svg>
